<?xml version="1.0" standalone="no"?>
<!DOCTYPE svg PUBLIC "-//W3C//DTD SVG 20010904//EN"
 "http://www.w3.org/TR/2001/REC-SVG-20010904/DTD/svg10.dtd">
<svg version="1.0" xmlns="http://www.w3.org/2000/svg"
 width="192.000000pt" height="192.000000pt" viewBox="0 0 192.000000 192.000000"
 preserveAspectRatio="xMidYMid meet">
<metadata>
Created by potrace 1.11, written by Peter Selinger 2001-2013
</metadata>
<g transform="translate(0.000000,192.000000) scale(0.100000,-0.100000)"
fill="#000000" stroke="none">
<path d="M855 1539 c-166 -31 -322 -144 -411 -297 -1 -2 -26 3 -55 11 -147 37
-293 -32 -359 -168 -35 -75 -34 -180 5 -257 67 -137 197 -196 349 -161 32 7
59 12 60 11 9 -19 77 -110 100 -134 81 -80 195 -141 306 -162 59 -11 202 -7
255 7 143 40 261 124 345 246 17 25 33 45 35 45 2 0 16 -5 30 -10 45 -17 127
-18 180 -2 271 79 301 450 45 566 -68 31 -146 38 -212 19 -27 -8 -50 -13 -51
-11 -103 182 -293 298 -497 303 -47 1 -103 -2 -125 -6z m276 -219 c64 -32 115
-73 149 -121 l19 -26 -92 -31 c-51 -17 -198 -67 -327 -112 -527 -181 -559
-191 -595 -184 -39 7 -83 46 -91 81 -15 58 17 123 72 143 31 12 95 5 105 -12
4 -6 4 -37 2 -69 -3 -33 -3 -59 1 -59 7 0 115 35 158 52 21 8 28 19 33 51 18
108 110 231 212 283 72 36 111 44 209 40 68 -3 92 -9 145 -36z m524 -249 c28
-4 65 -50 71 -89 9 -55 -9 -96 -54 -123 -39 -23 -108 -22 -122 1 -4 7 -5 38
-3 70 6 68 13 66 -102 27 l-81 -27 -13 -60 c-8 -33 -18 -63 -22 -66 -5 -3 -9
-14 -9 -25 0 -10 -4 -19 -9 -19 -5 0 -12 -8 -15 -18 -5 -15 -45 -58 -96 -105
-43 -39 -167 -80 -240 -80 -44 0 -117 17 -166 38 -55 24 -164 118 -164 140 0
10 39 28 105 49 6 2 17 6 25 9 18 7 400 137 525 178 50 17 97 33 105 36 153
59 209 72 265 64z"/>
</g>
</svg>
